<?xml version="1.0" encoding="utf-8"?>
<svg version="1.1" xmlns:xlink="http://www.w3.org/1999/xlink" width="12px" height="12px" xmlns="http://www.w3.org/2000/svg">
  <defs>
    <mask fill="white" id="clip2">
      <path d="M 11.6041666666667 5.47265625  C 11.8680555555556 5.62109375  12 5.796875  12 6  C 12 6.203125  11.8680555555556 6.37890625  11.6041666666667 6.52734375  L 2.27083333333333 11.77734375  C 2.00694444444444 11.92578125  1.69444444444444 12  1.33333333333333 12  C 0.972222222222222 12  0.659722222222222 11.92578125  0.395833333333333 11.77734375  C 0.131944444444444 11.62890625  0 11.453125  0 11.25  L 0 0.75  C 0 0.546874999999998  0.131944444444444 0.371093749999998  0.395833333333333 0.22265625  C 0.659722222222222 0.0742187499999991  0.972222222222222 0  1.33333333333333 0  C 1.69444444444444 0  2.00694444444444 0.0742187499999991  2.27083333333333 0.22265625  L 11.6041666666667 5.47265625  Z " fill-rule="evenodd" />
    </mask>
  </defs>
  <g transform="matrix(1 0 0 1 -156 -283 )">
    <path d="M 11.6041666666667 5.47265625  C 11.8680555555556 5.62109375  12 5.796875  12 6  C 12 6.203125  11.8680555555556 6.37890625  11.6041666666667 6.52734375  L 2.27083333333333 11.77734375  C 2.00694444444444 11.92578125  1.69444444444444 12  1.33333333333333 12  C 0.972222222222222 12  0.659722222222222 11.92578125  0.395833333333333 11.77734375  C 0.131944444444444 11.62890625  0 11.453125  0 11.25  L 0 0.75  C 0 0.546874999999998  0.131944444444444 0.371093749999998  0.395833333333333 0.22265625  C 0.659722222222222 0.0742187499999991  0.972222222222222 0  1.33333333333333 0  C 1.69444444444444 0  2.00694444444444 0.0742187499999991  2.27083333333333 0.22265625  L 11.6041666666667 5.47265625  Z " fill-rule="nonzero" fill="#000000" stroke="none" fill-opacity="0" transform="matrix(1 0 0 1 156 283 )" />
    <path d="M 11.6041666666667 5.47265625  C 11.8680555555556 5.62109375  12 5.796875  12 6  C 12 6.203125  11.8680555555556 6.37890625  11.6041666666667 6.52734375  L 2.27083333333333 11.77734375  C 2.00694444444444 11.92578125  1.69444444444444 12  1.33333333333333 12  C 0.972222222222222 12  0.659722222222222 11.92578125  0.395833333333333 11.77734375  C 0.131944444444444 11.62890625  0 11.453125  0 11.25  L 0 0.75  C 0 0.546874999999998  0.131944444444444 0.371093749999998  0.395833333333333 0.22265625  C 0.659722222222222 0.0742187499999991  0.972222222222222 0  1.33333333333333 0  C 1.69444444444444 0  2.00694444444444 0.0742187499999991  2.27083333333333 0.22265625  L 11.6041666666667 5.47265625  Z " stroke-width="2" stroke="#aaaaaa" fill="none" transform="matrix(1 0 0 1 156 283 )" mask="url(#clip2)" />
  </g>
</svg>